# xmcd
#
# Track frame offsets:
#	150
#	19835
#	34652
#	51915
#	67850
#	86420
#	107267
#	119817
#	136892
#	154412
#	166627
#	187590
#	205285
#	223415
#	239667
#	255660
#	274725
#	292005
#	307957
#	322907
#
# Disc length: 4572 seconds
#
# Revision: 1
# Processed by: cddbd v1.5.2PL0 Copyright (c) Steve Scherf et al.
# Submitted via: audiograbber 1.83.01
#
DISCID=1c11da14
DTITLE=Various Artist - Gone Country 4
DYEAR=1999
DGENRE=Country
TTITLE0=The Mavericks - Dance The Night Away
TTITLE1=Toby Keith - Getcha Some
TTITLE2=Trisha Yearwood - There Goes My Baby
TTITLE3=Tracy Byrd - I'm From The Country
TTITLE4=Keith Glass (Duet with Lyndsay Hammond) - Standing In The Way Of Love
TTITLE5=Vince Gill - If You Ever Have Forever In Mind
TTITLE6=Dead Ringer Band - He Thinks I Still Care
TTITLE7=Big House - Faith
TTITLE8=Allison Moorer - A Soft Place To Fall
TTITLE9=Danni Leigh - If The Jukebox Took Teardrops
TTITLE10=George Jones - Wild Irish Rose
TTITLE11=Gary Allan - No Man In His Wrong Heart
TTITLE12=Keith Harling - Papa Bear
TTITLE13=Mark Wills - Don't Laugh At Me
TTITLE14=Terri Clark - You're Easy On The Eyes
TTITLE15=Kedron Taylor - The Old Holden Waltz
TTITLE16=Sharyn Lee - I Should Have Known Better
TTITLE17=Chris Knight - It Ain't Easy Being Me
TTITLE18=Matraca Berg - Back In The Saddle
TTITLE19=Dolly Parton - Honky Tonk Songs
EXTD=
EXTT0=
EXTT1=
EXTT2=
EXTT3=
EXTT4=
EXTT5=
EXTT6=
EXTT7=
EXTT8=
EXTT9=
EXTT10=
EXTT11=
EXTT12=
EXTT13=
EXTT14=
EXTT15=
EXTT16=
EXTT17=
EXTT18=
EXTT19=
PLAYORDER=
